<svg xmlns="http://www.w3.org/2000/svg" xmlns:xlink="http://www.w3.org/1999/xlink" viewBox="0 0 32.12 21.65"><defs><style>.cls-1{fill:none;clip-rule:evenodd;}.cls-2{clip-path:url(#clip-path);}.cls-3{fill:url(#Безымянный_градиент_8);}.cls-4{clip-path:url(#clip-path-2);}.cls-5{fill:url(#Безымянный_градиент_2);}.cls-6{clip-path:url(#clip-path-3);}.cls-7{fill:url(#Безымянный_градиент_8-2);}.cls-8{clip-path:url(#clip-path-4);}.cls-9{fill:url(#Безымянный_градиент_8-3);}.cls-10{clip-path:url(#clip-path-5);}.cls-11{fill:url(#Безымянный_градиент_8-4);}.cls-12{clip-path:url(#clip-path-6);}.cls-13{fill:url(#Безымянный_градиент_8-5);}.cls-14{clip-path:url(#clip-path-7);}.cls-15{fill:url(#Безымянный_градиент_8-6);}.cls-16{clip-path:url(#clip-path-8);}.cls-17{fill:url(#Безымянный_градиент_8-7);}.cls-18{fill:#fff;}.cls-19{clip-path:url(#clip-path-9);}.cls-20{fill:#ffe394;}.cls-100,.cls-101,.cls-102,.cls-103,.cls-104,.cls-105,.cls-106,.cls-107,.cls-108,.cls-109,.cls-110,.cls-111,.cls-112,.cls-113,.cls-114,.cls-115,.cls-116,.cls-117,.cls-118,.cls-119,.cls-120,.cls-121,.cls-122,.cls-123,.cls-124,.cls-125,.cls-126,.cls-127,.cls-128,.cls-129,.cls-130,.cls-131,.cls-132,.cls-133,.cls-134,.cls-135,.cls-136,.cls-137,.cls-138,.cls-139,.cls-140,.cls-141,.cls-142,.cls-143,.cls-144,.cls-145,.cls-146,.cls-147,.cls-148,.cls-149,.cls-150,.cls-151,.cls-152,.cls-153,.cls-154,.cls-155,.cls-156,.cls-157,.cls-158,.cls-159,.cls-160,.cls-161,.cls-162,.cls-163,.cls-164,.cls-165,.cls-166,.cls-167,.cls-168,.cls-169,.cls-170,.cls-171,.cls-172,.cls-173,.cls-174,.cls-175,.cls-176,.cls-177,.cls-178,.cls-179,.cls-180,.cls-181,.cls-182,.cls-183,.cls-184,.cls-185,.cls-186,.cls-187,.cls-188,.cls-189,.cls-190,.cls-191,.cls-192,.cls-193,.cls-194,.cls-195,.cls-196,.cls-197,.cls-198,.cls-199,.cls-20,.cls-200,.cls-201,.cls-202,.cls-203,.cls-204,.cls-205,.cls-206,.cls-207,.cls-208,.cls-209,.cls-21,.cls-210,.cls-211,.cls-212,.cls-213,.cls-214,.cls-215,.cls-216,.cls-217,.cls-218,.cls-219,.cls-22,.cls-220,.cls-221,.cls-222,.cls-223,.cls-224,.cls-225,.cls-226,.cls-227,.cls-228,.cls-229,.cls-23,.cls-230,.cls-231,.cls-232,.cls-233,.cls-234,.cls-235,.cls-236,.cls-237,.cls-238,.cls-239,.cls-24,.cls-240,.cls-241,.cls-242,.cls-243,.cls-244,.cls-245,.cls-246,.cls-247,.cls-248,.cls-249,.cls-25,.cls-250,.cls-26,.cls-27,.cls-28,.cls-29,.cls-30,.cls-31,.cls-32,.cls-33,.cls-34,.cls-35,.cls-36,.cls-37,.cls-38,.cls-39,.cls-40,.cls-41,.cls-42,.cls-43,.cls-44,.cls-45,.cls-46,.cls-47,.cls-48,.cls-49,.cls-50,.cls-51,.cls-52,.cls-53,.cls-54,.cls-55,.cls-56,.cls-57,.cls-58,.cls-59,.cls-60,.cls-61,.cls-62,.cls-63,.cls-64,.cls-65,.cls-66,.cls-67,.cls-68,.cls-69,.cls-70,.cls-71,.cls-72,.cls-73,.cls-74,.cls-75,.cls-76,.cls-77,.cls-78,.cls-79,.cls-80,.cls-81,.cls-82,.cls-83,.cls-84,.cls-85,.cls-86,.cls-87,.cls-88,.cls-89,.cls-90,.cls-91,.cls-92,.cls-93,.cls-94,.cls-95,.cls-96,.cls-97,.cls-98,.cls-99{fill-rule:evenodd;}.cls-21{fill:#fbdf90;}.cls-22{fill:#fadc8c;}.cls-23{fill:#f6d888;}.cls-24{fill:#f5d686;}.cls-25{fill:#f1d282;}.cls-26{fill:#efd07f;}.cls-27{fill:#edcd7c;}.cls-28{fill:#eaca78;}.cls-29{fill:#e8c774;}.cls-30{fill:#e6c371;}.cls-31{fill:#e3c16e;}.cls-32{fill:#e1be6a;}.cls-33{fill:#dfbb67;}.cls-34{fill:#dcb864;}.cls-35{fill:#dab560;}.cls-36{fill:#d8b35d;}.cls-37{fill:#d5af5a;}.cls-38{fill:#d3ad57;}.cls-39{fill:#d0aa53;}.cls-40{fill:#cfa851;}.cls-41{fill:#cca54d;}.cls-42{fill:#caa24a;}.cls-43{fill:#c89f48;}.cls-44{fill:#c59c44;}.cls-45{fill:#c39a41;}.cls-46{fill:#c1973e;}.cls-47{fill:#be943b;}.cls-48{fill:#bc9238;}.cls-49{fill:#ba8f36;}.cls-50{fill:#b78c32;}.cls-51{fill:#b58a2f;}.cls-52{fill:#b3872c;}.cls-53{fill:#b0842a;}.cls-54{fill:#af8226;}.cls-55{fill:#ac8023;}.cls-56{fill:#aa7e21;}.cls-57{fill:#a77b1e;}.cls-58{fill:#a5791a;}.cls-59{fill:#a37718;}.cls-60{fill:#a17414;}.cls-61{fill:#9f7211;}.cls-62{fill:#9c6f0e;}.cls-63{fill:#9a6d09;}.cls-64{fill:#986a05;}.cls-65{fill:#966902;}.cls-66{fill:#946600;}.cls-67{fill:#926400;}.cls-68{fill:#976904;}.cls-69{fill:#9a6c08;}.cls-70{fill:#9c6f0c;}.cls-71{fill:#9e7111;}.cls-72{fill:#a5791b;}.cls-73{fill:#a87c1f;}.cls-74{fill:#ab7f22;}.cls-75{fill:#ac8025;}.cls-76{fill:#af8329;}.cls-77{fill:#b2862c;}.cls-78{fill:#bd9239;}.cls-79{fill:#be953c;}.cls-80{fill:#c19840;}.cls-81{fill:#c49b43;}.cls-82{fill:#c79e46;}.cls-83{fill:#c9a14a;}.cls-84{fill:#cca44d;}.cls-85{fill:#d1ab54;}.cls-86{fill:#d4ae58;}.cls-87{fill:#d6b15b;}.cls-88{fill:#d9b45f;}.cls-89{fill:#dbb762;}.cls-90{fill:#deba66;}.cls-91{fill:#e0bd6a;}.cls-92{fill:#e8c775;}.cls-93{fill:#ebcb79;}.cls-94{fill:#edcd7d;}.cls-95{fill:#f0d180;}.cls-96{fill:#f2d484;}.cls-97{fill:#f8db8c;}.cls-98{fill:#ffe395;}.cls-99{fill:#ffe596;}.cls-100{fill:#fde193;}.cls-101{fill:#fbde8f;}.cls-102{fill:#f9db8b;}.cls-103{fill:#f6d787;}.cls-104{fill:#f4d483;}.cls-105{fill:#f1d180;}.cls-106{fill:#f0ce7e;}.cls-107{fill:#ecca7a;}.cls-108{fill:#ebc776;}.cls-109{fill:#e8c472;}.cls-110{fill:#e6c16e;}.cls-111{fill:#e3be6b;}.cls-112{fill:#e2bb68;}.cls-113{fill:#dfb864;}.cls-114{fill:#ddb561;}.cls-115{fill:#dbb15d;}.cls-116{fill:#d9af5a;}.cls-117{fill:#d6ac56;}.cls-118{fill:#d4a954;}.cls-119{fill:#d2a650;}.cls-120{fill:#d0a34d;}.cls-121{fill:#cda049;}.cls-122{fill:#cb9d46;}.cls-123{fill:#c99a43;}.cls-124{fill:#c69740;}.cls-125{fill:#c4943d;}.cls-126{fill:#c2923a;}.cls-127{fill:#bf8e36;}.cls-128{fill:#bd8b33;}.cls-129{fill:#bc8930;}.cls-130{fill:#b9862e;}.cls-131{fill:#b7832a;}.cls-132{fill:#b58027;}.cls-133{fill:#b37e24;}.cls-134{fill:#b07b21;}.cls-135{fill:#ae791e;}.cls-136{fill:#ac761c;}.cls-137{fill:#ab7418;}.cls-138{fill:#a87115;}.cls-139{fill:#a66e11;}.cls-140{fill:#a46c0d;}.cls-141{fill:#a26a09;}.cls-142{fill:#9f6706;}.cls-143{fill:#9e6501;}.cls-144{fill:#9c6200;}.cls-145{fill:#9b6100;}.cls-146{fill:#9d6400;}.cls-147{fill:#9f6603;}.cls-148{fill:#a06807;}.cls-149{fill:#a26a0c;}.cls-150{fill:#a46d0f;}.cls-151{fill:#a77013;}.cls-152{fill:#a87216;}.cls-153{fill:#ac771c;}.cls-154{fill:#ae791f;}.cls-155{fill:#b6832a;}.cls-156{fill:#b9852d;}.cls-157{fill:#ba8830;}.cls-158{fill:#bd8a32;}.cls-159{fill:#bf8d35;}.cls-160{fill:#c19039;}.cls-161{fill:#c3933b;}.cls-162{fill:#c5953e;}.cls-163{fill:#c79841;}.cls-164{fill:#ca9b45;}.cls-165{fill:#cc9e47;}.cls-166{fill:#cea14b;}.cls-167{fill:#d0a34e;}.cls-168{fill:#d6ac57;}.cls-169{fill:#ddb460;}.cls-170{fill:#dfb763;}.cls-171{fill:#e1ba67;}.cls-172{fill:#e3bd6b;}.cls-173{fill:#e5c06d;}.cls-174{fill:#e7c371;}.cls-175{fill:#e9c675;}.cls-176{fill:#ecc977;}.cls-177{fill:#edcb7b;}.cls-178{fill:#f0cf7f;}.cls-179{fill:#f2d281;}.cls-180{fill:#f5d685;}.cls-181{fill:#f7d889;}.cls-182{fill:#f9db8c;}.cls-183{fill:#ffe294;}.cls-184{fill:#ffe597;}.cls-185{fill:#fadd8e;}.cls-186{fill:#f3d485;}.cls-187{fill:#f0cf81;}.cls-188{fill:#ecca7c;}.cls-189{fill:#eac678;}.cls-190{fill:#e7c273;}.cls-191{fill:#e3be6f;}.cls-192{fill:#e1ba6b;}.cls-193{fill:#ddb566;}.cls-194{fill:#dab162;}.cls-195{fill:#d7ad5d;}.cls-196{fill:#d4a959;}.cls-197{fill:#d1a556;}.cls-198{fill:#cea151;}.cls-199{fill:#cb9d4d;}.cls-200{fill:#c79949;}.cls-201{fill:#c59545;}.cls-202{fill:#c19142;}.cls-203{fill:#be8d3d;}.cls-204{fill:#bb893a;}.cls-205{fill:#b88536;}.cls-206{fill:#b58132;}.cls-207{fill:#b27f2f;}.cls-208{fill:#af7b2b;}.cls-209{fill:#ac7728;}.cls-210{fill:#a97324;}.cls-211{fill:#a67021;}.cls-212{fill:#a36c1e;}.cls-213{fill:#a1691a;}.cls-214{fill:#9d6517;}.cls-215{fill:#9b6112;}.cls-216{fill:#985e0f;}.cls-217{fill:#955b0b;}.cls-218{fill:#935806;}.cls-219{fill:#8f5502;}.cls-220{fill:#8c5100;}.cls-221{fill:#8d5200;}.cls-222{fill:#915604;}.cls-223{fill:#945a08;}.cls-224{fill:#975d0e;}.cls-225{fill:#9a6112;}.cls-226{fill:#9d6516;}.cls-227{fill:#a16a1a;}.cls-228{fill:#a46d1e;}.cls-229{fill:#a77122;}.cls-230{fill:#ab7626;}.cls-231{fill:#ae792a;}.cls-232{fill:#b27e2d;}.cls-233{fill:#b48132;}.cls-234{fill:#b88636;}.cls-235{fill:#bb8a3a;}.cls-236{fill:#bf8f3f;}.cls-237{fill:#c39342;}.cls-238{fill:#c69847;}.cls-239{fill:#ca9c4c;}.cls-240{fill:#cda150;}.cls-241{fill:#d0a655;}.cls-242{fill:#d4aa5a;}.cls-243{fill:#d7af5e;}.cls-244{fill:#dbb463;}.cls-245{fill:#deb868;}.cls-246{fill:#e2bd6d;}.cls-247{fill:#e6c272;}.cls-248{fill:#e9c777;}.cls-249{fill:#edcc7c;}.cls-250{fill:#f0d080;}</style><clipPath id="clip-path"><path class="cls-1" d="M32.12,0V19.61l-.88.25a20.81,20.81,0,0,1-5.69.74,51.78,51.78,0,0,1-8.35-.91C11.9,18.82,7,18,2.06,20.44L0,21.46V0Z"/></clipPath><linearGradient id="Безымянный_градиент_8" y1="10.73" x2="32.12" y2="10.73" gradientUnits="userSpaceOnUse"><stop offset="0" stop-color="#ffe597"/><stop offset="0.19" stop-color="#916300"/><stop offset="0.36" stop-color="#ffe597"/><stop offset="0.54" stop-color="#9a6000"/><stop offset="0.73" stop-color="#ffe597"/><stop offset="0.88" stop-color="#8b5000"/><stop offset="1" stop-color="#f4d686"/></linearGradient><clipPath id="clip-path-2"><path class="cls-1" d="M30.78,1V18.88c-9.81,2.77-19.63-4.17-29.44.68V1Z"/></clipPath><linearGradient id="Безымянный_градиент_2" x1="16.06" y1="1.04" x2="16.06" y2="19.56" gradientUnits="userSpaceOnUse"><stop offset="0" stop-color="#e20010"/><stop offset="0.5" stop-color="#941603"/><stop offset="1" stop-color="#e20e12"/></linearGradient><clipPath id="clip-path-3"><path class="cls-1" d="M7.36,11.74s1-.73,1.5-1a10.33,10.33,0,0,1,1.29-.65l.56-.21A6.44,6.44,0,0,0,9,10.45a6,6,0,0,0-1.6,1.29M7.13,9S8,8.77,8.51,8.69a7.91,7.91,0,0,1,1.4-.09c.39,0,.75,0,.75,0a4.12,4.12,0,0,0-1.39-.14,5.59,5.59,0,0,0-1.72.33A2.63,2.63,0,0,0,7.13,9Zm3.53-1.82s-1.21-.34-2-.46L7.18,6.5a13.1,13.1,0,0,1,1.87.14A9,9,0,0,1,10.66,7.19Zm.91-.94A9.37,9.37,0,0,0,9.05,4.58l-.88-.35a5.83,5.83,0,0,1,2.9,1.42A3.39,3.39,0,0,1,11.57,6.25Zm1.26-.86L12,3.83c-.19-.35-.55-.89-.69-1.17s-.47-.79-.47-.79A16.5,16.5,0,0,0,12.83,5.39ZM14,5a9,9,0,0,1-.28-1.48,8.11,8.11,0,0,1,0-1.35c0-.21.17-1,.17-1S13.87,2.61,13.87,3s0,.69,0,1S14,5,14,5Zm-1.47,5.32a8.61,8.61,0,0,0,1-.56c.27-.2.82-.53.82-.53l-.45.19L14.69,9l-1.61.85ZM15,8.82l.82-.33a1.8,1.8,0,0,1,.3,0c.08,0,.1,0,.1,0s-.09-.1-.05-.18.11-.16.11-.21a.25.25,0,0,0,0-.12,3.51,3.51,0,0,1-.27.34,1.93,1.93,0,0,1-.38.19L15,8.78Zm-4,2.49s-.72.62-1,.86l-.3.29,1.12-1.1L9.63,12.49l1-1L9.82,12l.18-.19-.72.49a3.91,3.91,0,0,0,.45-.36c-.07,0-.45.26-.47.27L9,12.38l.1-.15-.74.43,1.49-.94L9.22,12s1.39-.68,1.7-.86.46-.23.63-.36a7.07,7.07,0,0,1,.7-.48,2.58,2.58,0,0,0,.83-.69A1.57,1.57,0,0,0,13.37,9l.05,0a1.16,1.16,0,0,1-.11.48l-.13.22s1-.58,1.32-.72a2.16,2.16,0,0,0,.68-.45,4.63,4.63,0,0,0,.54-.64A3.68,3.68,0,0,0,16,7.37a3.69,3.69,0,0,1-.19.58,6.81,6.81,0,0,1-.45.53l-.13.18A2.48,2.48,0,0,0,16,8.31a1.13,1.13,0,0,0,.32-.43s0,0,0,0a.61.61,0,0,1,0,.25.46.46,0,0,1-.09.24c0,.05.08.22.08.22a.9.9,0,0,0-.43-.05,8.32,8.32,0,0,0-.78.3,3.27,3.27,0,0,0-.44.22l-.63.48-.41.27s.63-.23.9-.36a3.06,3.06,0,0,0,.38-.19l.16-.11a1.36,1.36,0,0,1-.63.41,8.36,8.36,0,0,0-.91.41l.8-.22a2,2,0,0,0,.49-.14.94.94,0,0,0,.29-.26c0-.07.08-.13.1-.05a.41.41,0,0,1-.07.3l-.08.11s.07,0,.08.08,0,.09-.06.06,0-.07-.19-.08a4,4,0,0,0-.76.15,7.45,7.45,0,0,0-1.3.43C12.29,10.58,11.06,11.31,11.06,11.31Zm4.27-6.49a7.63,7.63,0,0,1,.15-1.4,7.79,7.79,0,0,1,.4-1.21c.08-.18.43-.81.43-.81S15.86,2.61,15.75,3s-.18.62-.24.91S15.33,4.82,15.33,4.82Zm1,.33a7.48,7.48,0,0,1,.68-1.24,7.68,7.68,0,0,1,.85-1c.14-.14.72-.59.72-.59s-.9,1-1.12,1.23-.42.51-.59.75Zm1.13.37a8.85,8.85,0,0,1,1.1-.93A8.08,8.08,0,0,1,19.76,4a14.3,14.3,0,0,1,1.44-.31s-1.74.58-2.05.76-.58.33-.83.5Zm.8.8a7.35,7.35,0,0,1,1.19-.64,6.79,6.79,0,0,1,1.18-.35,13.28,13.28,0,0,1,1.38,0s-1.71.21-2,.32-.59.19-.85.3ZM16.52,10A5.23,5.23,0,0,1,19.58,12l0,0a3.4,3.4,0,0,0-.25-.46A5.76,5.76,0,0,0,16.73,10,.51.51,0,0,0,16.52,10Zm1.25-.08a6.25,6.25,0,0,1,3.47,2.69l0,0A4,4,0,0,0,21,12a6.81,6.81,0,0,0-3-2.13A.69.69,0,0,0,17.77,9.88Zm1.31,0c1.69.35,4.27,1.85,5.08,3.38l.05.06c-.71-1.62-3.09-3.05-4.8-3.43A.88.88,0,0,0,19.08,9.89Zm-.35-3.07A8.5,8.5,0,0,1,22.24,6c.36,0,.82,0,1.32,0a9.21,9.21,0,0,1,1.17.19l.39.11a10.93,10.93,0,0,0-5.92.29C19,6.69,18.73,6.82,18.73,6.82Zm-3.4,2.53c.1-.25.52-.5.5-.23a.41.41,0,0,1-.16.33.74.74,0,0,1-.27.12s0-.06.16-.14a.37.37,0,0,0,.15-.23s0,0-.08,0a1.66,1.66,0,0,0-.26.28.1.1,0,0,1,0,.06.9.9,0,0,1,.22-.34l.12-.09a.27.27,0,0,0-.11.05c-.06,0-.16.18-.18.19A0,0,0,0,1,15.33,9.35Zm.58-.22c.1-.24.52-.49.5-.23a.42.42,0,0,1-.16.33.78.78,0,0,1-.27.13c-.05,0,.05-.06.15-.15A.38.38,0,0,0,16.29,9c0-.05,0-.06-.08,0a1.36,1.36,0,0,0-.26.29.28.28,0,0,1-.06.06A.79.79,0,0,1,16.12,9l.12-.08a.34.34,0,0,0-.12,0,1.37,1.37,0,0,0-.17.19S15.91,9.13,15.91,9.13ZM16.53,9c.13-.22.59-.41.53-.15a.44.44,0,0,1-.21.3,1.1,1.1,0,0,1-.29.09s.06-.06.17-.12a.46.46,0,0,0,.2-.2s0-.06-.09,0a1.85,1.85,0,0,0-.29.24.18.18,0,0,1-.07.06.75.75,0,0,1,.28-.31.5.5,0,0,1,.13-.07.3.3,0,0,0-.12,0c-.06,0-.18.15-.21.16A0,0,0,0,1,16.53,9Zm.62,0c.13-.22.59-.41.53-.15a.42.42,0,0,1-.22.3,1,1,0,0,1-.28.09c-.05,0,.06-.05.17-.12a.38.38,0,0,0,.19-.2c0-.05,0-.06-.08,0a2,2,0,0,0-.3.24.13.13,0,0,1-.06.06.75.75,0,0,1,.28-.31l.12-.07a.27.27,0,0,0-.11,0,2.49,2.49,0,0,0-.21.17S17.15,9,17.15,9Zm.6,0c.15-.22.61-.38.54-.12a.43.43,0,0,1-.23.29,1.17,1.17,0,0,1-.29.07s.06-.05.18-.11a.45.45,0,0,0,.2-.19c0-.05,0-.06-.08,0a1.54,1.54,0,0,0-.31.22.21.21,0,0,1-.07.05.84.84,0,0,1,.3-.29l.13-.06-.12,0c-.06,0-.19.15-.21.15S17.75,9,17.75,9Zm.59,0c.2-.17.69-.21.55,0a.45.45,0,0,1-.3.23.91.91,0,0,1-.3,0s.07,0,.21-.06A.43.43,0,0,0,18.74,9s0-.06-.07,0a1.18,1.18,0,0,0-.36.14.18.18,0,0,1-.08,0,.8.8,0,0,1,.37-.21l.14,0a.28.28,0,0,0-.12,0c-.07,0-.23.09-.25.09S18.34,9,18.34,9Zm.5.3c.26,0,.7.17.46.29a.43.43,0,0,1-.38,0,1,1,0,0,1-.25-.15s.08,0,.21.05a.47.47,0,0,0,.28,0c.05,0,0,0,0-.08a1.36,1.36,0,0,0-.38-.06.17.17,0,0,1-.09,0,.9.9,0,0,1,.43,0l.13.05a.28.28,0,0,0-.1-.06,1.91,1.91,0,0,0-.26-.05A0,0,0,0,1,18.84,9.26ZM16,9.49c.27,0,.64.33.37.39A.42.42,0,0,1,16,9.83l0,0s0,.07-.07.1a.41.41,0,0,1-.37,0,.6.6,0,0,1-.25-.15s.07,0,.2.05a.45.45,0,0,0,.28,0c.06,0,0,0,0-.07a1.48,1.48,0,0,0-.39-.06h-.09a.89.89,0,0,1,.43,0l.13,0a.27.27,0,0,0-.09-.07l-.27,0a0,0,0,0,1,0,0,.69.69,0,0,1,.42.07l-.06-.07s.08,0,.19.1a.45.45,0,0,0,.27.08c.06,0,.05,0,0-.08a1.67,1.67,0,0,0-.35-.15.12.12,0,0,1-.08,0,.9.9,0,0,1,.41.11l.12.08a.38.38,0,0,0-.08-.09,1.83,1.83,0,0,0-.25-.1A0,0,0,0,1,16,9.49Zm.49-.13c.26,0,.64.33.37.39a.42.42,0,0,1-.37-.05.81.81,0,0,1-.21-.21s.08,0,.19.1a.42.42,0,0,0,.27.08c.05,0,.05,0,0-.08a1.54,1.54,0,0,0-.36-.15.17.17,0,0,1-.08,0,1,1,0,0,1,.41.11l.12.08a.38.38,0,0,0-.08-.09,1.38,1.38,0,0,0-.24-.1A0,0,0,0,1,16.46,9.36Zm.58,0c.27,0,.64.33.38.39a.49.49,0,0,1-.37-.05.81.81,0,0,1-.21-.22s.07,0,.19.1a.37.37,0,0,0,.27.08c.05,0,.05,0,0-.08a1.54,1.54,0,0,0-.36-.15l-.08,0a.86.86,0,0,1,.41.1l.12.09a.38.38,0,0,0-.08-.09c-.05,0-.22-.09-.24-.11S17,9.34,17,9.34Zm.65-.06c.26,0,.6.4.33.43a.43.43,0,0,1-.37-.09.9.9,0,0,1-.18-.23s.07,0,.18.12a.43.43,0,0,0,.25.1c.06,0,.06,0,0-.08a2,2,0,0,0-.34-.19.12.12,0,0,1-.08,0,.89.89,0,0,1,.4.15l.11.09a.25.25,0,0,0-.07-.09,1.14,1.14,0,0,0-.23-.13A0,0,0,0,1,17.69,9.28Zm.54,0c.27.05.6.4.33.43a.42.42,0,0,1-.36-.09A1,1,0,0,1,18,9.38s.08,0,.18.12a.39.39,0,0,0,.26.1c.06,0,.05,0,0-.08a1.45,1.45,0,0,0-.34-.19.11.11,0,0,1-.07,0,.82.82,0,0,1,.39.15.57.57,0,0,1,.11.1.24.24,0,0,0-.07-.1,1.14,1.14,0,0,0-.23-.13A0,0,0,0,1,18.23,9.27ZM16.43,7.9c.08-.3.55-.65.56-.34a.47.47,0,0,1-.15.41.9.9,0,0,1-.3.19c-.05,0,.05-.08.17-.19a.47.47,0,0,0,.15-.29c0-.06,0-.06-.1,0a1.36,1.36,0,0,0-.26.36.21.21,0,0,1-.06.08,1,1,0,0,1,.22-.43l.13-.12a.4.4,0,0,0-.13.07,2.09,2.09,0,0,0-.18.25A0,0,0,0,1,16.43,7.9Zm.65-.33c.08-.3.55-.64.56-.33a.49.49,0,0,1-.14.41,1.18,1.18,0,0,1-.31.18c-.05,0,0-.08.17-.19a.45.45,0,0,0,.15-.28c0-.07,0-.07-.1,0a1.54,1.54,0,0,0-.26.36.21.21,0,0,1-.06.09,1,1,0,0,1,.22-.44.63.63,0,0,1,.13-.11.4.4,0,0,0-.13.07c-.06,0-.16.23-.18.24A0,0,0,0,1,17.08,7.57Zm.72-.22c.12-.28.64-.55.6-.25a.49.49,0,0,1-.21.39.92.92,0,0,1-.32.13c-.06,0,.06-.06.19-.16a.53.53,0,0,0,.2-.26c0-.06,0-.06-.1,0a1.92,1.92,0,0,0-.32.32.3.3,0,0,1-.07.08.91.91,0,0,1,.28-.4l.15-.1a.44.44,0,0,0-.14,0c-.07,0-.19.21-.22.22S17.8,7.35,17.8,7.35Zm.72-.11c.13-.28.64-.56.61-.25a.57.57,0,0,1-.21.39,1,1,0,0,1-.33.13c-.05,0,.06-.07.19-.16a.43.43,0,0,0,.2-.26c0-.06,0-.07-.1,0a1.93,1.93,0,0,0-.32.32.18.18,0,0,1-.07.08,1,1,0,0,1,.29-.41L18.92,7a.35.35,0,0,0-.13,0c-.07,0-.2.21-.23.22S18.52,7.24,18.52,7.24Zm.72-.09c.14-.28.67-.52.61-.22a.48.48,0,0,1-.23.37.78.78,0,0,1-.33.12c-.05,0,.06-.06.2-.15A.45.45,0,0,0,19.7,7c0-.06,0-.06-.1,0a1.64,1.64,0,0,0-.33.3.16.16,0,0,1-.08.07A.93.93,0,0,1,19.5,7l.15-.09a.63.63,0,0,0-.14,0,2.75,2.75,0,0,0-.23.21S19.24,7.15,19.24,7.15Zm.69-.09c.21-.23.79-.33.65,0a.55.55,0,0,1-.32.3,1,1,0,0,1-.36,0s.08,0,.24-.1a.51.51,0,0,0,.27-.18c0-.06,0-.07-.09,0a1.43,1.43,0,0,0-.41.21.16.16,0,0,1-.09,0,1.09,1.09,0,0,1,.4-.29l.17,0a.29.29,0,0,0-.14,0c-.08,0-.26.14-.29.14A0,0,0,0,1,19.93,7.06Zm.63.29c.3-.09.85.11.58.28a.57.57,0,0,1-.44.1,1,1,0,0,1-.32-.16s.1,0,.26,0a.55.55,0,0,0,.33,0c.06,0,0,0-.06-.08a1.87,1.87,0,0,0-.46,0,.18.18,0,0,1-.1,0,1,1,0,0,1,.5,0l.17.05a.3.3,0,0,0-.13-.07,2.11,2.11,0,0,0-.31,0S20.56,7.35,20.56,7.35ZM17.2,8c.32,0,.8.31.5.41a.53.53,0,0,1-.45,0l-.05,0s0,.08-.07.13a.51.51,0,0,1-.43.09,1,1,0,0,1-.32-.14s.09,0,.25,0a.46.46,0,0,0,.33,0c.06,0,.05,0-.05-.08a2.57,2.57,0,0,0-.47,0h-.1a.94.94,0,0,1,.5-.05.68.68,0,0,1,.17,0,.52.52,0,0,0-.13-.07,1.72,1.72,0,0,0-.31,0,0,0,0,0,1,0,0,.78.78,0,0,1,.5,0L17,8.17c0-.05.09,0,.23.09a.5.5,0,0,0,.33.06c.07,0,.06,0,0-.09a2.22,2.22,0,0,0-.44-.14.14.14,0,0,1-.1,0,1.12,1.12,0,0,1,.5.08l.15.08a.42.42,0,0,0-.11-.09,1.75,1.75,0,0,0-.3-.1A0,0,0,0,1,17.2,8Zm.56-.22c.32,0,.8.32.49.42a.55.55,0,0,1-.44,0A1,1,0,0,1,17.53,8s.1,0,.24.1a.56.56,0,0,0,.33.06c.06,0,.06,0,0-.1a1.78,1.78,0,0,0-.44-.13.26.26,0,0,1-.1,0,1.11,1.11,0,0,1,.5.07.7.7,0,0,1,.14.09.27.27,0,0,0-.1-.1c-.07,0-.28-.08-.3-.1S17.76,7.77,17.76,7.77Zm.69-.1c.32,0,.8.31.5.41a.53.53,0,0,1-.45,0,1,1,0,0,1-.27-.22s.09,0,.23.09a.5.5,0,0,0,.33.06c.06,0,.06,0,0-.09a2.22,2.22,0,0,0-.44-.14.14.14,0,0,1-.1,0,1.12,1.12,0,0,1,.5.08l.15.08a.42.42,0,0,0-.11-.09c-.07,0-.28-.08-.3-.1A0,0,0,0,1,18.45,7.67Zm.75-.15c.32,0,.76.39.45.47a.56.56,0,0,1-.45-.06A1.3,1.3,0,0,1,19,7.68s.09,0,.22.11a.51.51,0,0,0,.32.1c.07,0,.06,0,0-.1a1.66,1.66,0,0,0-.42-.18.18.18,0,0,1-.1,0,1.09,1.09,0,0,1,.49.13l.14.1a.38.38,0,0,0-.09-.11c-.07-.05-.27-.11-.29-.13S19.2,7.52,19.2,7.52Zm.64-.08c.32,0,.77.39.45.47a.53.53,0,0,1-.44-.06,1,1,0,0,1-.25-.25s.09,0,.23.11a.47.47,0,0,0,.31.1c.07,0,.07,0,0-.1a2.12,2.12,0,0,0-.42-.18.26.26,0,0,1-.1,0,1,1,0,0,1,.49.12l.14.1a.38.38,0,0,0-.09-.11c-.07,0-.27-.11-.29-.13S19.84,7.44,19.84,7.44Zm-.33,1.83c3.36,0,5.82,2.62,7.68,4.94a12.7,12.7,0,0,0-3.33-3.54A7.73,7.73,0,0,0,19.51,9.27Zm0-.56c3.32-.46,6.15,1.8,8.33,3.84A12.82,12.82,0,0,0,24,9.5,7.77,7.77,0,0,0,19.48,8.71Zm-7.92,1.55a6.66,6.66,0,0,1,.07-2A3.38,3.38,0,0,1,15,5.72,3.82,3.82,0,0,1,17.79,7a3.34,3.34,0,0,0-3.48-1.3A3.67,3.67,0,0,0,12,7a3.59,3.59,0,0,0-.63,2.49A2.84,2.84,0,0,0,11.56,10.26Z"/></clipPath><linearGradient id="Безымянный_градиент_8-2" x1="7.13" y1="7.72" x2="27.81" y2="7.72" xlink:href="#Безымянный_градиент_8"/><clipPath id="clip-path-4"><polygon class="cls-1" points="21.39 15.27 21.27 14.87 21.15 15.27 21.39 15.27"/></clipPath><linearGradient id="Безымянный_градиент_8-3" x1="21.39" y1="14.97" x2="21.15" y2="15.17" xlink:href="#Безымянный_градиент_8"/><clipPath id="clip-path-5"><path class="cls-1" d="M8,16.26V13.41a.9.9,0,0,1,.94-1,.9.9,0,0,1,.94,1v2.85a.89.89,0,0,1-.94,1,.89.89,0,0,1-.94-1"/></clipPath><linearGradient id="Безымянный_градиент_8-4" x1="10.17" y1="14.23" x2="7.74" y2="15.45" xlink:href="#Безымянный_градиент_8"/><clipPath id="clip-path-6"><path class="cls-1" d="M5.4,13.58,6,12.92a1.12,1.12,0,0,1,.81-.47.8.8,0,0,1,.54,1.45l-.51.54.94,1.41a1,1,0,0,1,.17.52.91.91,0,0,1-1,.85.88.88,0,0,1-.78-.4L5.5,15.7l-.1.09v.47a.89.89,0,0,1-.94,1,.89.89,0,0,1-.94-1V13.41a.9.9,0,0,1,.94-1,.9.9,0,0,1,.94,1Z"/></clipPath><linearGradient id="Безымянный_градиент_8-5" x1="7.24" y1="13.06" x2="4.26" y2="16.61" xlink:href="#Безымянный_градиент_8"/><clipPath id="clip-path-7"><path class="cls-1" d="M14.16,16l-.49-1.92a3.72,3.72,0,0,1-.16-.82.9.9,0,0,1,1.78-.08l.13.79.12-.69c.1-.55.33-.84.95-.84s.84.29.94.84l.12.69.13-.79a.84.84,0,0,1,.9-.74.83.83,0,0,1,.88.82,3.22,3.22,0,0,1-.16.82l-.6,2.35a.93.93,0,0,1-1,.78h-.21a.88.88,0,0,1-.92-.81l-.12-.64-.13.64a.87.87,0,0,1-.92.81h-.21a.93.93,0,0,1-1-.78l0-.13v.06a.78.78,0,0,1-.85.78h-2a.93.93,0,0,1-1-1v-2.7a.95.95,0,1,1,1.89,0v2.17h1.17a.82.82,0,0,1,.77.43"/></clipPath><linearGradient id="Безымянный_градиент_8-6" x1="15.96" y1="12.24" x2="13.83" y2="17.43" xlink:href="#Безымянный_градиент_8"/><clipPath id="clip-path-8"><path class="cls-1" d="M23.48,16.18v-2.8a.93.93,0,0,1,1.05-1,1.05,1.05,0,0,1,1,.52l.73,1.21v-.82a.93.93,0,0,1,1.85,0v3c0,.59-.46.88-1,.88a1.1,1.1,0,0,1-1-.64l-.67-1.06v.76a.86.86,0,0,1-.92.94.84.84,0,0,1-.9-.69.87.87,0,0,1-.87.66.8.8,0,0,1-.8-.5l0-.13H20.74l0,.13a.8.8,0,0,1-.8.5.85.85,0,0,1-.88-.78,2.82,2.82,0,0,1,.23-.85l.91-2.44a.91.91,0,0,1,.9-.7h.42a.91.91,0,0,1,.9.7l.91,2.44a4.09,4.09,0,0,1,.19.59"/></clipPath><linearGradient id="Безымянный_градиент_8-7" x1="24.64" y1="12.23" x2="22.45" y2="17.44" xlink:href="#Безымянный_градиент_8"/><clipPath id="clip-path-9"><path class="cls-1" d="M28.7,11.63h.07s.08,0,.09,0H28.7Zm0,.68a.57.57,0,0,0,.3,0l-.11-.18a1,1,0,0,0-.12-.17h0v.35Zm-.32-.87,0,.06a.54.54,0,0,0-.08.28.53.53,0,0,0,.08.27l0,.06Zm.25-.18h.16a.74.74,0,0,1,.26,0,.32.32,0,0,1,.23.3.37.37,0,0,1-.1.24l-.05,0,.08.12.09.14a.35.35,0,0,0,0-.08.53.53,0,0,0,.08-.27.54.54,0,0,0-.08-.28.53.53,0,0,0-.21-.21.73.73,0,0,0-.29-.07A.54.54,0,0,0,28.59,11.26Zm.22-.38a.89.89,0,0,1,.45.12.8.8,0,0,1,.35.33.83.83,0,0,1,0,.89.83.83,0,0,1-.34.33.94.94,0,0,1-.92,0,.83.83,0,0,1-.34-.33.83.83,0,0,1,0-.89.8.8,0,0,1,.35-.33A.89.89,0,0,1,28.81,10.88Z"/></clipPath></defs><g id="Слой_2" data-name="Слой 2"><g id="Слой_1-2" data-name="Слой 1"><g class="cls-2"><rect class="cls-3" width="32.12" height="21.46"/></g><g class="cls-4"><rect class="cls-5" x="1.34" y="1.04" width="29.44" height="20.6"/></g><g class="cls-6"><rect class="cls-7" x="7.09" y="1.23" width="20.72" height="12.98"/></g><g class="cls-8"><rect class="cls-9" x="21.15" y="14.87" width="0.25" height="0.4"/></g><g class="cls-10"><rect class="cls-11" x="8.01" y="12.45" width="1.88" height="4.77"/></g><g class="cls-12"><rect class="cls-13" x="3.52" y="12.45" width="4.46" height="4.77"/></g><g class="cls-14"><rect class="cls-15" x="10.33" y="12.45" width="9.13" height="4.77"/></g><g class="cls-16"><rect class="cls-17" x="19.02" y="12.43" width="9.05" height="4.82"/></g><path class="cls-18" d="M5.14,14.22v-.81a.64.64,0,0,0-.68-.71.64.64,0,0,0-.68.71v2.85a.64.64,0,0,0,.68.71.64.64,0,0,0,.68-.71V15.7l.39-.41.93,1.39A.61.61,0,0,0,7,17a.66.66,0,0,0,.69-.6A.76.76,0,0,0,7.59,16l-1-1.57.64-.68c.18-.18.26-.28.26-.47a.6.6,0,0,0-.61-.56c-.22,0-.35.11-.62.39Z"/><path class="cls-18" d="M8.27,16.26a.68.68,0,1,0,1.36,0V13.41a.68.68,0,1,0-1.36,0Z"/><path class="cls-18" d="M12,15.83V13.41a.69.69,0,1,0-1.37,0v2.7c0,.55.25.79.78.79h2a.54.54,0,1,0,0-1.07Z"/><path class="cls-18" d="M17.56,15.47h0l-.38-2.13c-.08-.46-.22-.64-.69-.64s-.61.18-.69.64l-.37,2.13h0L15,13.23a.58.58,0,0,0-.64-.53.57.57,0,0,0-.62.57,3.37,3.37,0,0,0,.15.77l.6,2.34a.67.67,0,0,0,.71.59h.21c.4,0,.59-.2.66-.6l.38-1.92h0l.37,1.92c.08.4.27.6.67.6h.21a.68.68,0,0,0,.71-.59l.6-2.34a4,4,0,0,0,.15-.77.58.58,0,0,0-.62-.57.59.59,0,0,0-.65.53Z"/><path class="cls-18" d="M21.73,15.52H20.8L21.26,14h0Zm.25.82.1.31a.55.55,0,0,0,.55.32.59.59,0,0,0,.62-.53,2.9,2.9,0,0,0-.21-.77l-.91-2.44c-.13-.34-.31-.53-.65-.53h-.43c-.34,0-.52.19-.65.53l-.91,2.44a3,3,0,0,0-.22.77.6.6,0,0,0,.63.53.55.55,0,0,0,.55-.32l.1-.31Z"/><path class="cls-18" d="M26.47,15.06h0l-1.2-2a.79.79,0,0,0-.74-.4c-.52,0-.78.26-.78.7v2.93a.61.61,0,0,0,.66.69.62.62,0,0,0,.67-.69V14.68h0l1.13,1.8c.26.42.46.52.82.52s.77-.18.77-.63v-3a.67.67,0,0,0-1.33,0Z"/><g class="cls-19"><polygon class="cls-20" points="28.81 11.78 29.64 10.77 29.68 10.8 28.81 11.78"/><polygon class="cls-21" points="28.81 11.78 29.67 10.79 29.7 10.82 28.81 11.78"/><polygon class="cls-22" points="28.81 11.78 29.7 10.81 29.73 10.84 28.81 11.78"/><polygon class="cls-23" points="28.81 11.78 29.72 10.84 29.75 10.86 28.81 11.78"/><polygon class="cls-24" points="28.81 11.78 29.75 10.86 29.77 10.88 28.81 11.78"/><polygon class="cls-25" points="28.81 11.78 29.77 10.88 29.8 10.91 28.81 11.78"/><polygon class="cls-26" points="28.81 11.78 29.79 10.9 29.82 10.93 28.81 11.78"/><polygon class="cls-27" points="28.81 11.78 29.81 10.93 29.84 10.96 28.81 11.78"/><polygon class="cls-28" points="28.81 11.78 29.83 10.95 29.86 10.98 28.81 11.78"/><polygon class="cls-29" points="28.81 11.78 29.86 10.97 29.88 11.01 28.81 11.78"/><polygon class="cls-30" points="28.81 11.78 29.88 11 29.9 11.03 28.81 11.78"/><polygon class="cls-31" points="28.81 11.78 29.89 11.02 29.92 11.06 28.81 11.78"/><polygon class="cls-32" points="28.81 11.78 29.91 11.05 29.94 11.08 28.81 11.78"/><polygon class="cls-33" points="28.81 11.78 29.93 11.08 29.95 11.11 28.81 11.78"/><polygon class="cls-34" points="28.81 11.78 29.95 11.1 29.97 11.14 28.81 11.78"/><polygon class="cls-35" points="28.81 11.78 29.97 11.13 29.99 11.16 28.81 11.78"/><polygon class="cls-36" points="28.81 11.78 29.98 11.16 30 11.19 28.81 11.78"/><polygon class="cls-37" points="28.81 11.78 30 11.19 30.02 11.22 28.81 11.78"/><polygon class="cls-38" points="28.81 11.78 30.01 11.21 30.03 11.25 28.81 11.78"/><polygon class="cls-39" points="28.81 11.78 30.03 11.24 30.04 11.28 28.81 11.78"/><polygon class="cls-40" points="28.81 11.78 30.04 11.27 30.05 11.31 28.81 11.78"/><polygon class="cls-41" points="28.81 11.78 30.05 11.3 30.07 11.34 28.81 11.78"/><polygon class="cls-42" points="28.81 11.78 30.06 11.33 30.08 11.37 28.81 11.78"/><polygon class="cls-43" points="28.81 11.78 30.07 11.36 30.09 11.4 28.81 11.78"/><polygon class="cls-44" points="28.81 11.78 30.08 11.39 30.1 11.43 28.81 11.78"/><polygon class="cls-45" points="28.81 11.78 30.09 11.42 30.1 11.46 28.81 11.78"/><polygon class="cls-46" points="28.81 11.78 30.1 11.45 30.11 11.49 28.81 11.78"/><polygon class="cls-47" points="28.81 11.78 30.11 11.48 30.12 11.52 28.81 11.78"/><polygon class="cls-48" points="28.81 11.78 30.12 11.51 30.13 11.55 28.81 11.78"/><polygon class="cls-49" points="28.81 11.78 30.12 11.54 30.13 11.58 28.81 11.78"/><polygon class="cls-50" points="28.81 11.78 30.13 11.57 30.14 11.61 28.81 11.78"/><polygon class="cls-51" points="28.81 11.78 30.13 11.61 30.14 11.64 28.81 11.78"/><polygon class="cls-52" points="28.81 11.78 30.14 11.64 30.14 11.68 28.81 11.78"/><polygon class="cls-53" points="28.81 11.78 30.14 11.67 30.14 11.71 28.81 11.78"/><polygon class="cls-54" points="28.81 11.78 30.14 11.7 30.14 11.74 28.81 11.78"/><polygon class="cls-55" points="28.81 11.78 30.14 11.73 30.14 11.77 28.81 11.78"/><polygon class="cls-56" points="28.81 11.78 30.14 11.76 30.14 11.8 28.81 11.78"/><polygon class="cls-57" points="28.81 11.78 30.14 11.79 30.14 11.84 28.81 11.78"/><polygon class="cls-58" points="28.81 11.78 30.14 11.83 30.14 11.87 28.81 11.78"/><polygon class="cls-59" points="28.81 11.78 30.14 11.86 30.14 11.9 28.81 11.78"/><polygon class="cls-60" points="28.81 11.78 30.14 11.89 30.14 11.93 28.81 11.78"/><polygon class="cls-61" points="28.81 11.78 30.14 11.92 30.13 11.96 28.81 11.78"/><polygon class="cls-62" points="28.81 11.78 30.13 11.95 30.13 11.99 28.81 11.78"/><polygon class="cls-63" points="28.81 11.78 30.13 11.98 30.12 12.02 28.81 11.78"/><polygon class="cls-64" points="28.81 11.78 30.12 12.02 30.11 12.05 28.81 11.78"/><polygon class="cls-65" points="28.81 11.78 30.11 12.05 30.11 12.08 28.81 11.78"/><polygon class="cls-66" points="28.81 11.78 30.11 12.08 30.1 12.12 28.81 11.78"/><polygon class="cls-67" points="28.81 11.78 30.1 12.11 30.09 12.14 28.81 11.78"/><polygon class="cls-67" points="28.81 11.78 30.09 12.14 30.08 12.18 28.81 11.78"/><polygon class="cls-66" points="28.81 11.78 30.08 12.17 30.07 12.21 28.81 11.78"/><polygon class="cls-68" points="28.81 11.78 30.07 12.2 30.06 12.23 28.81 11.78"/><polygon class="cls-69" points="28.81 11.78 30.06 12.23 30.05 12.26 28.81 11.78"/><polygon class="cls-70" points="28.81 11.78 30.05 12.26 30.03 12.29 28.81 11.78"/><polygon class="cls-71" points="28.81 11.78 30.04 12.29 30.02 12.32 28.81 11.78"/><polygon class="cls-60" points="28.81 11.78 30.02 12.31 30 12.35 28.81 11.78"/><polygon class="cls-59" points="28.81 11.78 30.01 12.34 29.99 12.38 28.81 11.78"/><polygon class="cls-72" points="28.81 11.78 29.99 12.37 29.97 12.41 28.81 11.78"/><polygon class="cls-73" points="28.81 11.78 29.98 12.4 29.96 12.43 28.81 11.78"/><polygon class="cls-74" points="28.81 11.78 29.96 12.43 29.94 12.46 28.81 11.78"/><polygon class="cls-75" points="28.81 11.78 29.94 12.45 29.92 12.49 28.81 11.78"/><polygon class="cls-76" points="28.81 11.78 29.93 12.48 29.9 12.51 28.81 11.78"/><polygon class="cls-77" points="28.81 11.78 29.91 12.51 29.89 12.54 28.81 11.78"/><polygon class="cls-51" points="28.81 11.78 29.89 12.53 29.86 12.56 28.81 11.78"/><polygon class="cls-50" points="28.81 11.78 29.87 12.56 29.84 12.59 28.81 11.78"/><polygon class="cls-49" points="28.81 11.78 29.85 12.58 29.82 12.61 28.81 11.78"/><polygon class="cls-78" points="28.81 11.78 29.83 12.61 29.8 12.64 28.81 11.78"/><polygon class="cls-79" points="28.81 11.78 29.81 12.63 29.78 12.66 28.81 11.78"/><polygon class="cls-80" points="28.81 11.78 29.79 12.65 29.76 12.68 28.81 11.78"/><polygon class="cls-81" points="28.81 11.78 29.76 12.68 29.73 12.71 28.81 11.78"/><polygon class="cls-82" points="28.81 11.78 29.74 12.7 29.71 12.73 28.81 11.78"/><polygon class="cls-83" points="28.81 11.78 29.71 12.72 29.68 12.75 28.81 11.78"/><polygon class="cls-84" points="28.81 11.78 29.69 12.74 29.66 12.77 28.81 11.78"/><polygon class="cls-40" points="28.81 11.78 29.67 12.76 29.64 12.79 28.81 11.78"/><polygon class="cls-85" points="28.81 11.78 29.64 12.78 29.61 12.81 28.81 11.78"/><polygon class="cls-86" points="28.81 11.78 29.61 12.8 29.58 12.83 28.81 11.78"/><polygon class="cls-87" points="28.81 11.78 29.59 12.82 29.55 12.84 28.81 11.78"/><polygon class="cls-88" points="28.81 11.78 29.56 12.84 29.53 12.86 28.81 11.78"/><polygon class="cls-89" points="28.81 11.78 29.53 12.86 29.5 12.88 28.81 11.78"/><polygon class="cls-90" points="28.81 11.78 29.51 12.87 29.47 12.89 28.81 11.78"/><polygon class="cls-91" points="28.81 11.78 29.48 12.89 29.44 12.91 28.81 11.78"/><polygon class="cls-31" points="28.81 11.78 29.45 12.9 29.41 12.92 28.81 11.78"/><polygon class="cls-30" points="28.81 11.78 29.42 12.92 29.38 12.94 28.81 11.78"/><polygon class="cls-92" points="28.81 11.78 29.39 12.93 29.35 12.95 28.81 11.78"/><polygon class="cls-93" points="28.81 11.78 29.36 12.95 29.32 12.96 28.81 11.78"/><polygon class="cls-94" points="28.81 11.78 29.33 12.96 29.29 12.97 28.81 11.78"/><polygon class="cls-95" points="28.81 11.78 29.3 12.97 29.26 12.99 28.81 11.78"/><polygon class="cls-96" points="28.81 11.78 29.27 12.98 29.23 13 28.81 11.78"/><polygon class="cls-23" points="28.81 11.78 29.24 12.99 29.2 13.01 28.81 11.78"/><polygon class="cls-97" points="28.81 11.78 29.21 13 29.17 13.02 28.81 11.78"/><polygon class="cls-21" points="28.81 11.78 29.18 13.01 29.14 13.02 28.81 11.78"/><polygon class="cls-98" points="28.81 11.78 29.15 13.02 29.11 13.03 28.81 11.78"/><polygon class="cls-99" points="28.81 11.78 29.11 13.03 29.07 13.04 28.81 11.78"/><polygon class="cls-100" points="28.81 11.78 29.08 13.04 29.04 13.04 28.81 11.78"/><polygon class="cls-101" points="28.81 11.78 29.05 13.04 29.01 13.05 28.81 11.78"/><polygon class="cls-102" points="28.81 11.78 29.02 13.05 28.98 13.05 28.81 11.78"/><polygon class="cls-103" points="28.81 11.78 28.98 13.05 28.94 13.06 28.81 11.78"/><polygon class="cls-104" points="28.81 11.78 28.95 13.05 28.91 13.06 28.81 11.78"/><polygon class="cls-105" points="28.81 11.78 28.92 13.06 28.88 13.06 28.81 11.78"/><polygon class="cls-106" points="28.81 11.78 28.89 13.06 28.85 13.06 28.81 11.78"/><polygon class="cls-107" points="28.81 11.78 28.85 13.06 28.81 13.06 28.81 11.78"/><polygon class="cls-108" points="28.81 11.78 28.82 13.06 28.78 13.06 28.81 11.78"/><polygon class="cls-109" points="28.81 11.78 28.79 13.06 28.75 13.06 28.81 11.78"/><polygon class="cls-110" points="28.81 11.78 28.76 13.06 28.71 13.06 28.81 11.78"/><polygon class="cls-111" points="28.81 11.78 28.72 13.06 28.68 13.06 28.81 11.78"/><polygon class="cls-112" points="28.81 11.78 28.69 13.06 28.65 13.05 28.81 11.78"/><polygon class="cls-113" points="28.81 11.78 28.66 13.05 28.62 13.05 28.81 11.78"/><polygon class="cls-114" points="28.81 11.78 28.63 13.05 28.59 13.04 28.81 11.78"/><polygon class="cls-115" points="28.81 11.78 28.59 13.05 28.55 13.04 28.81 11.78"/><polygon class="cls-116" points="28.81 11.78 28.56 13.04 28.52 13.03 28.81 11.78"/><polygon class="cls-117" points="28.81 11.78 28.53 13.03 28.49 13.03 28.81 11.78"/><polygon class="cls-118" points="28.81 11.78 28.5 13.03 28.46 13.02 28.81 11.78"/><polygon class="cls-119" points="28.81 11.78 28.46 13.02 28.43 13.01 28.81 11.78"/><polygon class="cls-120" points="28.81 11.78 28.43 13.01 28.39 13 28.81 11.78"/><polygon class="cls-121" points="28.81 11.78 28.4 13 28.36 12.99 28.81 11.78"/><polygon class="cls-122" points="28.81 11.78 28.37 12.99 28.33 12.98 28.81 11.78"/><polygon class="cls-123" points="28.81 11.78 28.34 12.98 28.3 12.97 28.81 11.78"/><polygon class="cls-124" points="28.81 11.78 28.31 12.97 28.27 12.95 28.81 11.78"/><polygon class="cls-125" points="28.81 11.78 28.28 12.96 28.24 12.94 28.81 11.78"/><polygon class="cls-126" points="28.81 11.78 28.25 12.94 28.21 12.93 28.81 11.78"/><polygon class="cls-127" points="28.81 11.78 28.22 12.93 28.18 12.91 28.81 11.78"/><polygon class="cls-128" points="28.81 11.78 28.19 12.92 28.15 12.9 28.81 11.78"/><polygon class="cls-129" points="28.81 11.78 28.16 12.9 28.13 12.88 28.81 11.78"/><polygon class="cls-130" points="28.81 11.78 28.13 12.88 28.1 12.87 28.81 11.78"/><polygon class="cls-131" points="28.81 11.78 28.11 12.87 28.07 12.85 28.81 11.78"/><polygon class="cls-132" points="28.81 11.78 28.08 12.85 28.04 12.83 28.81 11.78"/><polygon class="cls-133" points="28.81 11.78 28.05 12.83 28.02 12.81 28.81 11.78"/><polygon class="cls-134" points="28.81 11.78 28.02 12.82 27.99 12.79 28.81 11.78"/><polygon class="cls-135" points="28.81 11.78 28 12.8 27.96 12.77 28.81 11.78"/><polygon class="cls-136" points="28.81 11.78 27.97 12.78 27.94 12.75 28.81 11.78"/><polygon class="cls-137" points="28.81 11.78 27.95 12.76 27.91 12.73 28.81 11.78"/><polygon class="cls-138" points="28.81 11.78 27.92 12.74 27.89 12.71 28.81 11.78"/><polygon class="cls-139" points="28.81 11.78 27.9 12.72 27.87 12.69 28.81 11.78"/><polygon class="cls-140" points="28.81 11.78 27.87 12.69 27.84 12.67 28.81 11.78"/><polygon class="cls-141" points="28.81 11.78 27.85 12.67 27.82 12.64 28.81 11.78"/><polygon class="cls-142" points="28.81 11.78 27.83 12.65 27.8 12.62 28.81 11.78"/><polygon class="cls-143" points="28.81 11.78 27.81 12.63 27.78 12.6 28.81 11.78"/><polygon class="cls-144" points="28.81 11.78 27.79 12.6 27.76 12.57 28.81 11.78"/><polygon class="cls-145" points="28.81 11.78 27.76 12.58 27.74 12.54 28.81 11.78"/><polygon class="cls-146" points="28.81 11.78 27.74 12.55 27.72 12.52 28.81 11.78"/><polygon class="cls-147" points="28.81 11.78 27.72 12.53 27.7 12.49 28.81 11.78"/><polygon class="cls-148" points="28.81 11.78 27.7 12.5 27.68 12.47 28.81 11.78"/><polygon class="cls-149" points="28.81 11.78 27.69 12.47 27.67 12.44 28.81 11.78"/><polygon class="cls-150" points="28.81 11.78 27.67 12.45 27.65 12.41 28.81 11.78"/><polygon class="cls-151" points="28.81 11.78 27.65 12.42 27.63 12.38 28.81 11.78"/><polygon class="cls-152" points="28.81 11.78 27.64 12.39 27.62 12.36 28.81 11.78"/><polygon class="cls-137" points="28.81 11.78 27.62 12.36 27.6 12.33 28.81 11.78"/><polygon class="cls-153" points="28.81 11.78 27.61 12.34 27.59 12.3 28.81 11.78"/><polygon class="cls-154" points="28.81 11.78 27.59 12.31 27.58 12.27 28.81 11.78"/><polygon class="cls-134" points="28.81 11.78 27.58 12.28 27.57 12.24 28.81 11.78"/><polygon class="cls-133" points="28.81 11.78 27.57 12.25 27.55 12.21 28.81 11.78"/><polygon class="cls-132" points="28.81 11.78 27.56 12.22 27.54 12.18 28.81 11.78"/><polygon class="cls-155" points="28.81 11.78 27.55 12.19 27.53 12.15 28.81 11.78"/><polygon class="cls-156" points="28.81 11.78 27.54 12.16 27.52 12.12 28.81 11.78"/><polygon class="cls-157" points="28.81 11.78 27.52 12.13 27.51 12.09 28.81 11.78"/><polygon class="cls-158" points="28.81 11.78 27.52 12.1 27.51 12.06 28.81 11.78"/><polygon class="cls-159" points="28.81 11.78 27.51 12.07 27.5 12.03 28.81 11.78"/><polygon class="cls-160" points="28.81 11.78 27.5 12.04 27.49 12 28.81 11.78"/><polygon class="cls-161" points="28.81 11.78 27.5 12.01 27.49 11.97 28.81 11.78"/><polygon class="cls-162" points="28.81 11.78 27.49 11.98 27.48 11.94 28.81 11.78"/><polygon class="cls-163" points="28.81 11.78 27.48 11.94 27.48 11.9 28.81 11.78"/><polygon class="cls-164" points="28.81 11.78 27.48 11.91 27.48 11.87 28.81 11.78"/><polygon class="cls-165" points="28.81 11.78 27.48 11.88 27.48 11.84 28.81 11.78"/><polygon class="cls-166" points="28.81 11.78 27.48 11.85 27.47 11.81 28.81 11.78"/><polygon class="cls-167" points="28.81 11.78 27.48 11.82 27.47 11.78 28.81 11.78"/><polygon class="cls-119" points="28.81 11.78 27.47 11.79 27.47 11.75 28.81 11.78"/><polygon class="cls-118" points="28.81 11.78 27.47 11.76 27.48 11.72 28.81 11.78"/><polygon class="cls-168" points="28.81 11.78 27.48 11.72 27.48 11.68 28.81 11.78"/><polygon class="cls-116" points="28.81 11.78 27.48 11.69 27.48 11.65 28.81 11.78"/><polygon class="cls-115" points="28.81 11.78 27.48 11.66 27.48 11.62 28.81 11.78"/><polygon class="cls-169" points="28.81 11.78 27.48 11.63 27.49 11.59 28.81 11.78"/><polygon class="cls-170" points="28.81 11.78 27.49 11.6 27.49 11.56 28.81 11.78"/><polygon class="cls-171" points="28.81 11.78 27.49 11.57 27.5 11.53 28.81 11.78"/><polygon class="cls-172" points="28.81 11.78 27.5 11.54 27.5 11.5 28.81 11.78"/><polygon class="cls-173" points="28.81 11.78 27.5 11.5 27.51 11.47 28.81 11.78"/><polygon class="cls-174" points="28.81 11.78 27.51 11.47 27.52 11.44 28.81 11.78"/><polygon class="cls-175" points="28.81 11.78 27.52 11.44 27.53 11.4 28.81 11.78"/><polygon class="cls-176" points="28.81 11.78 27.53 11.41 27.54 11.38 28.81 11.78"/><polygon class="cls-177" points="28.81 11.78 27.54 11.38 27.55 11.35 28.81 11.78"/><polygon class="cls-178" points="28.81 11.78 27.55 11.35 27.56 11.31 28.81 11.78"/><polygon class="cls-179" points="28.81 11.78 27.56 11.32 27.57 11.29 28.81 11.78"/><polygon class="cls-180" points="28.81 11.78 27.57 11.29 27.59 11.26 28.81 11.78"/><polygon class="cls-181" points="28.81 11.78 27.58 11.26 27.6 11.23 28.81 11.78"/><polygon class="cls-182" points="28.81 11.78 27.6 11.23 27.61 11.2 28.81 11.78"/><polygon class="cls-101" points="28.81 11.78 27.61 11.21 27.63 11.17 28.81 11.78"/><polygon class="cls-183" points="28.81 11.78 27.63 11.18 27.64 11.14 28.81 11.78"/><polygon class="cls-184" points="28.81 11.78 27.64 11.15 27.66 11.12 28.81 11.78"/><polygon class="cls-100" points="28.81 11.78 27.66 11.12 27.68 11.09 28.81 11.78"/><polygon class="cls-185" points="28.81 11.78 27.68 11.1 27.7 11.06 28.81 11.78"/><polygon class="cls-181" points="28.81 11.78 27.69 11.07 27.71 11.04 28.81 11.78"/><polygon class="cls-186" points="28.81 11.78 27.71 11.04 27.73 11.01 28.81 11.78"/><polygon class="cls-187" points="28.81 11.78 27.73 11.02 27.75 10.99 28.81 11.78"/><polygon class="cls-188" points="28.81 11.78 27.75 10.99 27.77 10.96 28.81 11.78"/><polygon class="cls-189" points="28.81 11.78 27.77 10.97 27.8 10.94 28.81 11.78"/><polygon class="cls-190" points="28.81 11.78 27.79 10.94 27.82 10.91 28.81 11.78"/><polygon class="cls-191" points="28.81 11.78 27.81 10.92 27.84 10.89 28.81 11.78"/><polygon class="cls-192" points="28.81 11.78 27.83 10.9 27.86 10.87 28.81 11.78"/><polygon class="cls-193" points="28.81 11.78 27.86 10.87 27.89 10.85 28.81 11.78"/><polygon class="cls-194" points="28.81 11.78 27.88 10.85 27.91 10.82 28.81 11.78"/><polygon class="cls-195" points="28.81 11.78 27.9 10.83 27.93 10.8 28.81 11.78"/><polygon class="cls-196" points="28.81 11.78 27.93 10.81 27.96 10.78 28.81 11.78"/><polygon class="cls-197" points="28.81 11.78 27.95 10.79 27.98 10.76 28.81 11.78"/><polygon class="cls-198" points="28.81 11.78 27.98 10.77 28.01 10.74 28.81 11.78"/><polygon class="cls-199" points="28.81 11.78 28 10.75 28.04 10.72 28.81 11.78"/><polygon class="cls-200" points="28.81 11.78 28.03 10.73 28.06 10.71 28.81 11.78"/><polygon class="cls-201" points="28.81 11.78 28.06 10.71 28.09 10.69 28.81 11.78"/><polygon class="cls-202" points="28.81 11.78 28.09 10.69 28.12 10.67 28.81 11.78"/><polygon class="cls-203" points="28.81 11.78 28.11 10.68 28.15 10.66 28.81 11.78"/><polygon class="cls-204" points="28.81 11.78 28.14 10.66 28.18 10.64 28.81 11.78"/><polygon class="cls-205" points="28.81 11.78 28.17 10.64 28.21 10.63 28.81 11.78"/><polygon class="cls-206" points="28.81 11.78 28.2 10.63 28.23 10.61 28.81 11.78"/><polygon class="cls-207" points="28.81 11.78 28.23 10.62 28.27 10.6 28.81 11.78"/><polygon class="cls-208" points="28.81 11.78 28.26 10.6 28.3 10.59 28.81 11.78"/><polygon class="cls-209" points="28.81 11.78 28.29 10.59 28.32 10.57 28.81 11.78"/><polygon class="cls-210" points="28.81 11.78 28.32 10.58 28.36 10.56 28.81 11.78"/><polygon class="cls-211" points="28.81 11.78 28.35 10.57 28.39 10.55 28.81 11.78"/><polygon class="cls-212" points="28.81 11.78 28.38 10.56 28.42 10.54 28.81 11.78"/><polygon class="cls-213" points="28.81 11.78 28.41 10.55 28.45 10.54 28.81 11.78"/><polygon class="cls-214" points="28.81 11.78 28.44 10.54 28.48 10.53 28.81 11.78"/><polygon class="cls-215" points="28.81 11.78 28.47 10.53 28.51 10.52 28.81 11.78"/><polygon class="cls-216" points="28.81 11.78 28.5 10.52 28.55 10.51 28.81 11.78"/><polygon class="cls-217" points="28.81 11.78 28.54 10.51 28.58 10.51 28.81 11.78"/><polygon class="cls-218" points="28.81 11.78 28.57 10.51 28.61 10.5 28.81 11.78"/><polygon class="cls-219" points="28.81 11.78 28.6 10.5 28.64 10.5 28.81 11.78"/><polygon class="cls-220" points="28.81 11.78 28.63 10.5 28.68 10.49 28.81 11.78"/><polygon class="cls-221" points="28.81 11.78 28.67 10.49 28.71 10.49 28.81 11.78"/><polygon class="cls-222" points="28.81 11.78 28.7 10.49 28.74 10.49 28.81 11.78"/><polygon class="cls-223" points="28.81 11.78 28.73 10.49 28.77 10.49 28.81 11.78"/><polygon class="cls-224" points="28.81 11.78 28.77 10.49 28.81 10.49 28.81 11.78"/><polygon class="cls-225" points="28.81 11.78 28.8 10.49 28.84 10.49 28.81 11.78"/><polygon class="cls-226" points="28.81 11.78 28.83 10.49 28.87 10.49 28.81 11.78"/><polygon class="cls-227" points="28.81 11.78 28.86 10.49 28.9 10.49 28.81 11.78"/><polygon class="cls-228" points="28.81 11.78 28.9 10.49 28.94 10.49 28.81 11.78"/><polygon class="cls-229" points="28.81 11.78 28.93 10.49 28.97 10.5 28.81 11.78"/><polygon class="cls-230" points="28.81 11.78 28.96 10.5 29 10.5 28.81 11.78"/><polygon class="cls-231" points="28.81 11.78 28.99 10.5 29.03 10.51 28.81 11.78"/><polygon class="cls-232" points="28.81 11.78 29.03 10.5 29.07 10.51 28.81 11.78"/><polygon class="cls-233" points="28.81 11.78 29.06 10.51 29.1 10.52 28.81 11.78"/><polygon class="cls-234" points="28.81 11.78 29.09 10.52 29.13 10.53 28.81 11.78"/><polygon class="cls-235" points="28.81 11.78 29.12 10.52 29.16 10.53 28.81 11.78"/><polygon class="cls-236" points="28.81 11.78 29.15 10.53 29.19 10.54 28.81 11.78"/><polygon class="cls-237" points="28.81 11.78 29.19 10.54 29.23 10.55 28.81 11.78"/><polygon class="cls-238" points="28.81 11.78 29.22 10.55 29.26 10.56 28.81 11.78"/><polygon class="cls-239" points="28.81 11.78 29.25 10.56 29.29 10.57 28.81 11.78"/><polygon class="cls-240" points="28.81 11.78 29.28 10.57 29.32 10.58 28.81 11.78"/><polygon class="cls-241" points="28.81 11.78 29.31 10.58 29.35 10.6 28.81 11.78"/><polygon class="cls-242" points="28.81 11.78 29.34 10.59 29.38 10.61 28.81 11.78"/><polygon class="cls-243" points="28.81 11.78 29.37 10.61 29.41 10.62 28.81 11.78"/><polygon class="cls-244" points="28.81 11.78 29.4 10.62 29.44 10.64 28.81 11.78"/><polygon class="cls-245" points="28.81 11.78 29.43 10.63 29.46 10.65 28.81 11.78"/><polygon class="cls-246" points="28.81 11.78 29.46 10.65 29.49 10.67 28.81 11.78"/><polygon class="cls-247" points="28.81 11.78 29.49 10.66 29.52 10.69 28.81 11.78"/><polygon class="cls-248" points="28.81 11.78 29.51 10.68 29.55 10.7 28.81 11.78"/><polygon class="cls-249" points="28.81 11.78 29.54 10.7 29.57 10.72 28.81 11.78"/><polygon class="cls-250" points="28.81 11.78 29.57 10.72 29.6 10.74 28.81 11.78"/><polygon class="cls-24" points="28.81 11.78 29.6 10.73 29.63 10.76 28.81 11.78"/><polygon class="cls-184" points="28.81 11.78 29.62 10.75 29.65 10.77 28.81 11.78"/></g><path class="cls-18" d="M28.59,11.73h.17a.32.32,0,0,0,.17,0,.12.12,0,0,0,.05-.09.14.14,0,0,0,0-.07l-.06,0h-.31Zm-.14.48v-.85h.3a.63.63,0,0,1,.23,0,.21.21,0,0,1,.11.08.19.19,0,0,1,0,.12.22.22,0,0,1-.07.17.29.29,0,0,1-.18.07l.07.05a.67.67,0,0,1,.13.17l.11.16H29l-.08-.13a.62.62,0,0,0-.15-.2.18.18,0,0,0-.11,0h-.09v.36Zm.36-1.09a.81.81,0,0,0-.34.08.6.6,0,0,0-.25.25.58.58,0,0,0,0,.65.6.6,0,0,0,.25.25.76.76,0,0,0,.68,0,.6.6,0,0,0,.25-.25.62.62,0,0,0,.09-.32.66.66,0,0,0-.35-.58A.76.76,0,0,0,28.81,11.12Zm0-.13a.82.82,0,0,1,.4.1.72.72,0,0,1,.31.29.76.76,0,0,1,0,.79.76.76,0,0,1-.3.29.82.82,0,0,1-.82,0,.76.76,0,0,1-.3-.29.76.76,0,0,1,0-.79.72.72,0,0,1,.31-.29A.82.82,0,0,1,28.81,11Z"/></g></g></svg>